<svg width="35" height="12" viewBox="0 0 35 12" fill="none" xmlns="http://www.w3.org/2000/svg">
<path d="M0.78125 2.66016V3.82617H2.59766V9.09961C2.59766 9.3457 2.56445 9.55078 2.49805 9.71484C2.43164 9.87891 2.3418 10.0117 2.22852 10.1133C2.11523 10.2109 1.98047 10.2812 1.82422 10.3242C1.66797 10.3672 1.50195 10.3887 1.32617 10.3887C1.2793 10.3887 1.21289 10.3867 1.12695 10.3828C1.04102 10.3828 0.951172 10.3789 0.857422 10.3711C0.759766 10.3672 0.666016 10.3594 0.576172 10.3477C0.486328 10.3398 0.414062 10.3301 0.359375 10.3184L0.277344 11.4609C0.359375 11.4766 0.439453 11.4902 0.517578 11.502C0.599609 11.5137 0.679688 11.5234 0.757812 11.5312C0.863281 11.543 0.96875 11.5508 1.07422 11.5547C1.18359 11.5586 1.29297 11.5605 1.40234 11.5605C1.81641 11.5605 2.18359 11.5098 2.50391 11.4082C2.82422 11.3066 3.0957 11.1543 3.31836 10.9512C3.54102 10.748 3.71094 10.4922 3.82812 10.1836C3.94531 9.87891 4.00391 9.51758 4.00391 9.09961V2.66016H0.78125ZM2.46875 1.01953C2.46875 1.23828 2.53906 1.41992 2.67969 1.56445C2.82422 1.70898 3.02344 1.78125 3.27734 1.78125C3.53906 1.78125 3.74219 1.70898 3.88672 1.56445C4.03125 1.41992 4.10352 1.23828 4.10352 1.01953C4.10352 0.796875 4.03125 0.613281 3.88672 0.46875C3.74219 0.320312 3.53906 0.246094 3.27734 0.246094C3.01953 0.246094 2.82031 0.322266 2.67969 0.474609C2.53906 0.623047 2.46875 0.804688 2.46875 1.01953ZM7.12695 11.4375H8.52734V8.42578C8.60156 8.50781 8.68164 8.58398 8.76758 8.6543C8.85352 8.72461 8.94336 8.78711 9.03711 8.8418C9.19727 8.93164 9.37109 9 9.55859 9.04688C9.75 9.09375 9.95898 9.11719 10.1855 9.11719C10.584 9.11719 10.9375 9.03516 11.2461 8.87109C11.5547 8.70703 11.8145 8.48047 12.0254 8.19141C12.2363 7.90625 12.3945 7.56641 12.5 7.17188C12.6094 6.77734 12.6641 6.35156 12.6641 5.89453V5.77148C12.6641 5.29492 12.6094 4.85938 12.5 4.46484C12.3906 4.06641 12.2324 3.72461 12.0254 3.43945C11.8145 3.1543 11.5527 2.93359 11.2402 2.77734C10.9316 2.62109 10.5742 2.54297 10.168 2.54297C9.96094 2.54297 9.76562 2.56641 9.58203 2.61328C9.39844 2.65625 9.23047 2.71875 9.07812 2.80078C8.96094 2.86328 8.85156 2.9375 8.75 3.02344C8.64844 3.10938 8.55469 3.20508 8.46875 3.31055L8.41602 2.66016H7.12695V11.4375ZM11.2637 5.77148V5.89453C11.2637 6.17578 11.2363 6.44336 11.1816 6.69727C11.127 6.94727 11.0391 7.16992 10.918 7.36523C10.8008 7.55664 10.6484 7.70898 10.4609 7.82227C10.2773 7.93164 10.0547 7.98633 9.79297 7.98633C9.63281 7.98633 9.48633 7.96875 9.35352 7.93359C9.2207 7.89453 9.10156 7.84375 8.99609 7.78125C8.89453 7.71484 8.80469 7.63672 8.72656 7.54688C8.64844 7.45703 8.58203 7.35742 8.52734 7.24805V4.42969C8.58984 4.3125 8.66211 4.20703 8.74414 4.11328C8.83008 4.01953 8.92969 3.94141 9.04297 3.87891C9.14062 3.82031 9.25195 3.77539 9.37695 3.74414C9.50195 3.71289 9.63672 3.69727 9.78125 3.69727C10.043 3.69727 10.2676 3.75195 10.4551 3.86133C10.6426 3.9707 10.7969 4.11914 10.918 4.30664C11.0352 4.49414 11.1211 4.71484 11.1758 4.96875C11.2344 5.21875 11.2637 5.48633 11.2637 5.77148ZM16.2383 8.15625C16.2383 8.42578 16.3262 8.6543 16.502 8.8418C16.6816 9.02539 16.9316 9.11719 17.252 9.11719C17.5684 9.11719 17.8164 9.02539 17.9961 8.8418C18.1797 8.6582 18.2715 8.42969 18.2715 8.15625C18.2715 7.88281 18.1816 7.65234 18.002 7.46484C17.8223 7.27344 17.5723 7.17773 17.252 7.17773C16.9238 7.17773 16.6719 7.27344 16.4961 7.46484C16.3242 7.65625 16.2383 7.88672 16.2383 8.15625ZM16.2383 3.19336C16.2383 3.46289 16.3262 3.69141 16.502 3.87891C16.6816 4.0625 16.9316 4.1543 17.252 4.1543C17.5684 4.1543 17.8164 4.0625 17.9961 3.87891C18.1797 3.69531 18.2715 3.4668 18.2715 3.19336C18.2715 2.91992 18.1816 2.68945 18.002 2.50195C17.8223 2.31055 17.5723 2.21484 17.252 2.21484C16.9238 2.21484 16.6719 2.31055 16.4961 2.50195C16.3242 2.69336 16.2383 2.92383 16.2383 3.19336ZM24.4883 9.11719C25.1055 9.11719 25.6309 8.99609 26.0645 8.75391C26.502 8.51172 26.8262 8.23828 27.0371 7.93359L26.2871 7.20703C26.0918 7.45703 25.8438 7.65039 25.543 7.78711C25.2422 7.91992 24.918 7.98633 24.5703 7.98633C24.3164 7.98633 24.082 7.94336 23.8672 7.85742C23.6562 7.77148 23.4727 7.65039 23.3164 7.49414C23.1602 7.3457 23.0371 7.17773 22.9473 6.99023C22.8574 6.80273 22.791 6.57031 22.748 6.29297V6.26367H27.1426V5.66016C27.1426 5.20703 27.082 4.78906 26.9609 4.40625C26.8398 4.02344 26.6602 3.69336 26.4219 3.41602C26.1836 3.14258 25.8887 2.92969 25.5371 2.77734C25.1855 2.62109 24.7812 2.54297 24.3242 2.54297C23.9141 2.54297 23.5273 2.62109 23.1641 2.77734C22.8047 2.92969 22.4883 3.14844 22.2148 3.43359C21.9414 3.71875 21.7266 4.0625 21.5703 4.46484C21.4141 4.86719 21.3359 5.31641 21.3359 5.8125V6.05273C21.3359 6.48633 21.4102 6.89062 21.5586 7.26562C21.7109 7.63672 21.9258 7.95898 22.2031 8.23242C22.4805 8.50977 22.8125 8.72656 23.1992 8.88281C23.5898 9.03906 24.0195 9.11719 24.4883 9.11719ZM24.3184 3.67969C24.5527 3.67969 24.7578 3.7207 24.9336 3.80273C25.1133 3.88086 25.2617 3.98633 25.3789 4.11914C25.5 4.25586 25.5938 4.41602 25.6602 4.59961C25.7266 4.7793 25.7598 4.96094 25.7598 5.14453V5.23828H22.7773C22.8203 4.99609 22.8867 4.7793 22.9766 4.58789C23.0664 4.39648 23.1777 4.23242 23.3105 4.0957C23.4434 3.96289 23.5938 3.86133 23.7617 3.79102C23.9336 3.7168 24.1191 3.67969 24.3184 3.67969ZM28.7363 9H30.1367V4.47656C30.1992 4.37109 30.2715 4.27344 30.3535 4.18359C30.4355 4.09375 30.5234 4.01758 30.6172 3.95508C30.7383 3.87305 30.873 3.81055 31.0215 3.76758C31.1699 3.7207 31.3301 3.69727 31.502 3.69727C31.709 3.69727 31.8926 3.7207 32.0527 3.76758C32.2129 3.81055 32.3496 3.88477 32.4629 3.99023C32.5762 4.0957 32.6621 4.23633 32.7207 4.41211C32.7793 4.58789 32.8086 4.80664 32.8086 5.06836V9H34.209V5.04492C34.209 4.59961 34.1562 4.2207 34.0508 3.9082C33.9453 3.5918 33.7969 3.33203 33.6055 3.12891C33.4141 2.92578 33.1836 2.77734 32.9141 2.68359C32.6445 2.58984 32.3477 2.54297 32.0234 2.54297C31.7773 2.54297 31.543 2.57812 31.3203 2.64844C31.0977 2.71875 30.8926 2.81836 30.7051 2.94727C30.5879 3.0293 30.4766 3.12305 30.3711 3.22852C30.2695 3.33008 30.1758 3.44141 30.0898 3.5625L30.002 2.66016H28.7363V9Z" fill="black"/>
</svg>
